<svg xmlns="http://www.w3.org/2000/svg" xmlns:xlink="http://www.w3.org/1999/xlink" width="548" height="51" viewBox="0 0 548 51">
  <defs>
    <clipPath id="clip-path">
      <rect id="Rectangle_16696" data-name="Rectangle 16696" width="548" height="51"/>
    </clipPath>
  </defs>
  <g id="a" clip-path="url(#clip-path)">
    <g id="Group_34262" data-name="Group 34262" transform="translate(0 6.867)">
      <text id="DevConnect" transform="translate(104.003 34)" fill="#c00000" font-size="44" font-family="Helvetica" font-weight="700" letter-spacing="-0.08em"><tspan x="0" y="0">DevConnect</tspan></text>
      <text id="Partner_Portal" data-name="Partner Portal" transform="translate(344.349 31.952)" fill="#fff" font-size="27" font-family="nevis-Bold, nevis" font-weight="700" letter-spacing="0.02em"><tspan x="0" y="0">Partner Portal</tspan></text>
      <path id="Path_8889" data-name="Path 8889" d="M36.487,108.709V101H33.88V96.786l2.922-.2.662-5.082h4.689v5.082h4.56V101h-4.56v7.639c0,2.158.981,3.021,2.472,3.021a5.642,5.642,0,0,0,1.813-.363l.893,4.106a13.46,13.46,0,0,1-4.241.693C38.36,116.108,36.487,113.131,36.487,108.709Z" transform="translate(-33.88 -79.551)" fill="#fff"/>
      <path id="Path_8890" data-name="Path 8890" d="M91.68,108.727h4.611l.42,3.321h.14c1.373-2.551,3.475-3.8,5.419-3.8a5.3,5.3,0,0,1,2.277.385l-.942,4.879a7.782,7.782,0,0,0-2.06-.308c-1.436,0-3.183.928-4.2,3.532v11.056H91.68Z" transform="translate(-75.803 -91.696)" fill="#fff"/>
      <path id="Path_8891" data-name="Path 8891" d="M143.29,81.183a3.288,3.288,0,1,1,3.272,2.956,3.009,3.009,0,0,1-3.272-2.956Zm.437,5.768h5.655v19.08h-5.653Z" transform="translate(-113.237 -69.921)" fill="#fff"/>
      <path id="Path_8892" data-name="Path 8892" d="M181,108.781h4.611l.406,2.414h.143a8.731,8.731,0,0,1,6.128-2.876c4.151,0,5.919,2.928,5.919,7.691v11.845h-5.652V116.725c0-2.747-.739-3.6-2.37-3.6-1.42,0-2.288.659-3.532,1.854v12.872H181Z" transform="translate(-140.589 -91.751)" fill="#fff"/>
      <path id="Path_8893" data-name="Path 8893" d="M257,81.183a3.283,3.283,0,1,1,3.263,2.956A3.01,3.01,0,0,1,257,81.183Zm.44,5.747h5.653v19.08h-5.664Z" transform="translate(-195.712 -69.921)" fill="#fff"/>
      <path id="Path_8894" data-name="Path 8894" d="M290.6,108.709V101H288V96.786l2.922-.217.648-5.068h4.67v5.082h4.573V101H296.24v7.639c0,2.158.981,3.021,2.472,3.021a5.672,5.672,0,0,0,1.816-.363l.89,4.106a13.44,13.44,0,0,1-4.238.693C292.471,116.108,290.6,113.131,290.6,108.709Z" transform="translate(-218.198 -79.551)" fill="#fff"/>
      <path id="Path_8895" data-name="Path 8895" d="M339.848,136.139l1.006-4.307a5.732,5.732,0,0,0,1.285.244,3.268,3.268,0,0,0,3.335-2.505l.275-.995L338.4,110h5.68l2.725,8.2c.549,1.728,1,3.537,1.5,5.405h.154c.426-1.805.851-3.615,1.326-5.405l2.319-8.2h5.408l-6.62,19.272c-1.81,4.779-3.846,7.252-8.331,7.252a8.79,8.79,0,0,1-2.719-.385Z" transform="translate(-254.754 -92.97)" fill="#fff"/>
    </g>
  </g>
</svg>
