<svg xmlns="http://www.w3.org/2000/svg" width="18.998" height="14.256" viewBox="0 0 18.998 14.256">
  <g id="email" transform="translate(0 448.101)">
    <path id="Path_31" data-name="Path 31" d="M1.443-448.038a1.756,1.756,0,0,0-1.3,2.111,1.663,1.663,0,0,0,.4.723c.167.171,8.07,5.458,8.359,5.588a1.7,1.7,0,0,0,1.417-.019c.352-.167,8.1-5.35,8.292-5.55a1.72,1.72,0,0,0-.9-2.857C17.356-448.123,1.784-448.119,1.443-448.038Z" transform="translate(-0.085 0)" fill="#fff"/>
    <path id="Path_32" data-name="Path 32" d="M0-335.49c0,3.005.011,4.382.041,4.519a1.786,1.786,0,0,0,1.336,1.347c.349.082,15.831.082,16.221,0a1.766,1.766,0,0,0,1.358-1.347c.048-.226.059-8.853.011-8.83-.015,0-1.807,1.2-3.985,2.653s-4.077,2.7-4.226,2.775a2.526,2.526,0,0,1-1.258.286,2.526,2.526,0,0,1-1.258-.286c-.148-.071-2.048-1.321-4.226-2.775S.045-339.8.03-339.8,0-337.868,0-335.49Z" transform="translate(0 -104.282)" fill="#fff"/>
  </g>
</svg>
