<svg xmlns="http://www.w3.org/2000/svg" width="14.236" height="19" viewBox="0 0 14.236 19">
  <g id="location-pin" transform="translate(-64.195 511.903)">
    <path id="Path_33" data-name="Path 33" d="M70.461-511.851a7.119,7.119,0,0,0-3.545,1.485,9.049,9.049,0,0,0-1.292,1.321,7.377,7.377,0,0,0-1.18,6.325,19.578,19.578,0,0,0,4.84,8.033,16.594,16.594,0,0,0,1.8,1.737.606.606,0,0,0,.483-.007,23.822,23.822,0,0,0,2.168-2.153,19.177,19.177,0,0,0,4.432-7.52A7.406,7.406,0,0,0,77-509.048a9.213,9.213,0,0,0-1.21-1.258A7.079,7.079,0,0,0,70.461-511.851Zm1.262,3.137a3.816,3.816,0,0,1,1.244.349,3.887,3.887,0,0,1,1.93,1.927,3.927,3.927,0,0,1-.828,4.488,3.914,3.914,0,0,1-4.41.757,3.815,3.815,0,0,1-1.1-.757,3.927,3.927,0,0,1-.828-4.488,4.012,4.012,0,0,1,3.526-2.309C71.34-508.748,71.548-508.733,71.723-508.714Z" fill="#fff"/>
  </g>
</svg>
